<?xml version="1.0" encoding="UTF-8"?>
<svg xmlns="http://www.w3.org/2000/svg" viewBox="0 0 64 64" width="64" height="64">
  <defs>
    <linearGradient id="g" x1="0" y1="0" x2="1" y2="1">
      <stop offset="0%" stop-color="#7c3aed"/>
      <stop offset="100%" stop-color="#2563eb"/>
    </linearGradient>
  </defs>
  <!-- rounded-square background -->
  <rect x="2" y="2" width="60" height="60" rx="14" fill="url(#g)"/>
  <!-- file/folder shape -->
  <path d="M14 18 h14 l4 4 h18 a3 3 0 0 1 3 3 v22 a3 3 0 0 1 -3 3 H14 a3 3 0 0 1 -3 -3 V21 a3 3 0 0 1 3 -3 z"
        fill="rgba(255,255,255,0.95)"/>
  <!-- tree node rows -->
  <circle cx="20" cy="26" r="2.4" fill="#2563eb"/>
  <rect x="26" y="24.5" width="22" height="3" rx="1.5" fill="#cbd5e1"/>
  <circle cx="20" cy="34" r="2.4" fill="#7c3aed"/>
  <rect x="26" y="32.5" width="18" height="3" rx="1.5" fill="#cbd5e1"/>
  <circle cx="20" cy="42" r="2.4" fill="#7c3aed"/>
  <rect x="26" y="40.5" width="14" height="3" rx="1.5" fill="#cbd5e1"/>
</svg>